<?xml version="1.0" encoding="UTF-8"?>
<svg width="182px" height="165px" viewBox="0 0 182 165" version="1.1" xmlns="http://www.w3.org/2000/svg" xmlns:xlink="http://www.w3.org/1999/xlink">
    <!-- Generator: Sketch 53 (72520) - https://sketchapp.com -->
    <title>Group 6</title>
    <desc>Created with Sketch.</desc>
    <defs>
        <path d="M4.15685643,16.6283006 L18.5798327,16.7027046 C19.0239173,16.7049955 19.3833525,17.0644308 19.3856434,17.5085153 L19.4600474,31.9314916 C19.4623552,32.3788363 19.1015814,32.7433516 18.6542367,32.7456594 C18.6514511,32.7456737 18.6486654,32.7456737 18.6458797,32.7456594 L4.22290341,32.6712554 C3.77881882,32.6689645 3.41938359,32.3095293 3.41709269,31.8654447 L3.3426887,17.4424684 C3.34038098,16.9951237 3.70115473,16.6306084 4.14849942,16.6283006 C4.15128507,16.6282863 4.15407078,16.6282863 4.15685643,16.6283006 Z" id="path-1"></path>
        <filter x="-52.7%" y="-40.3%" width="205.5%" height="205.5%" filterUnits="objectBoundingBox" id="filter-2">
            <feMorphology radius="1" operator="dilate" in="SourceAlpha" result="shadowSpreadOuter1"></feMorphology>
            <feOffset dx="0" dy="2" in="shadowSpreadOuter1" result="shadowOffsetOuter1"></feOffset>
            <feGaussianBlur stdDeviation="1.5" in="shadowOffsetOuter1" result="shadowBlurOuter1"></feGaussianBlur>
            <feColorMatrix values="0 0 0 0 0.0705882353   0 0 0 0 0.196078431   0 0 0 0 0.552941176  0 0 0 0.2 0" type="matrix" in="shadowBlurOuter1"></feColorMatrix>
        </filter>
        <path d="M17.5265793,4.24146937 L31.9495556,4.31587335 C32.3936402,4.31816425 32.7530754,4.67759948 32.7553663,5.12168407 L32.8297703,19.5446604 C32.832078,19.9920051 32.4713043,20.3565204 32.0239596,20.3588281 C32.0211739,20.3588425 32.0183882,20.3588425 32.0156026,20.3588281 L17.5926263,20.2844241 C17.1485417,20.2821332 16.7891064,19.922698 16.7868155,19.4786134 L16.7124116,5.05563709 C16.7101038,4.60829239 17.0708776,4.24377709 17.5182223,4.24146937 C17.5210079,4.24145499 17.5237936,4.24145499 17.5265793,4.24146937 Z" id="path-3"></path>
        <filter x="-52.7%" y="-40.3%" width="205.5%" height="205.5%" filterUnits="objectBoundingBox" id="filter-4">
            <feMorphology radius="1" operator="dilate" in="SourceAlpha" result="shadowSpreadOuter1"></feMorphology>
            <feOffset dx="0" dy="2" in="shadowSpreadOuter1" result="shadowOffsetOuter1"></feOffset>
            <feGaussianBlur stdDeviation="1.5" in="shadowOffsetOuter1" result="shadowBlurOuter1"></feGaussianBlur>
            <feColorMatrix values="0 0 0 0 0.0705882353   0 0 0 0 0.196078431   0 0 0 0 0.552941176  0 0 0 0.2 0" type="matrix" in="shadowBlurOuter1"></feColorMatrix>
        </filter>
        <path d="M30.5715529,16.610745 L45.0047224,16.6750983 C45.4492504,16.6770803 45.8091208,17.0369507 45.8111028,17.4814787 L45.8753559,31.8921887 C45.8773505,32.3395349 45.5163217,32.7037975 45.0689755,32.7057921 C45.0665678,32.7058029 45.0641601,32.7058029 45.0617524,32.7057921 L30.6285829,32.6414389 C30.1840549,32.6394569 29.8241845,32.2795865 29.8222025,31.8350585 L29.7579494,17.4243485 C29.7559548,16.9770023 30.1169836,16.6127396 30.5643298,16.610745 C30.5667375,16.6107343 30.5691452,16.6107343 30.5715529,16.610745 Z" id="path-5"></path>
        <filter x="-52.7%" y="-40.4%" width="205.5%" height="205.6%" filterUnits="objectBoundingBox" id="filter-6">
            <feMorphology radius="1" operator="dilate" in="SourceAlpha" result="shadowSpreadOuter1"></feMorphology>
            <feOffset dx="0" dy="2" in="shadowSpreadOuter1" result="shadowOffsetOuter1"></feOffset>
            <feGaussianBlur stdDeviation="1.5" in="shadowOffsetOuter1" result="shadowBlurOuter1"></feGaussianBlur>
            <feColorMatrix values="0 0 0 0 0.0705882353   0 0 0 0 0.196078431   0 0 0 0 0.552941176  0 0 0 0.2 0" type="matrix" in="shadowBlurOuter1"></feColorMatrix>
        </filter>
        <path d="M43.5314288,4.24529814 L57.9645983,4.30965137 C58.4091263,4.31163339 58.7689967,4.67150375 58.7709787,5.1160318 L58.8352318,19.5267418 C58.8372264,19.974088 58.4761976,20.3383506 58.0288514,20.3403452 C58.0264437,20.340356 58.024036,20.340356 58.0216284,20.3403452 L43.5884588,20.275992 C43.1439308,20.27401 42.7840604,19.9141396 42.7820784,19.4696116 L42.7178253,5.05890161 C42.7158307,4.61155541 43.0768595,4.24729273 43.5242057,4.24529814 C43.5266134,4.24528741 43.5290211,4.24528741 43.5314288,4.24529814 Z" id="path-7"></path>
        <filter x="-52.7%" y="-40.4%" width="205.5%" height="205.6%" filterUnits="objectBoundingBox" id="filter-8">
            <feMorphology radius="1" operator="dilate" in="SourceAlpha" result="shadowSpreadOuter1"></feMorphology>
            <feOffset dx="0" dy="2" in="shadowSpreadOuter1" result="shadowOffsetOuter1"></feOffset>
            <feGaussianBlur stdDeviation="1.5" in="shadowOffsetOuter1" result="shadowBlurOuter1"></feGaussianBlur>
            <feColorMatrix values="0 0 0 0 0.0705882353   0 0 0 0 0.196078431   0 0 0 0 0.552941176  0 0 0 0.2 0" type="matrix" in="shadowBlurOuter1"></feColorMatrix>
        </filter>
        <path d="M4.15685643,16.6283006 L18.5798327,16.7027046 C19.0239173,16.7049955 19.3833525,17.0644308 19.3856434,17.5085153 L19.4600474,31.9314916 C19.4623552,32.3788363 19.1015814,32.7433516 18.6542367,32.7456594 C18.6514511,32.7456737 18.6486654,32.7456737 18.6458797,32.7456594 L4.22290341,32.6712554 C3.77881882,32.6689645 3.41938359,32.3095293 3.41709269,31.8654447 L3.3426887,17.4424684 C3.34038098,16.9951237 3.70115473,16.6306084 4.14849942,16.6283006 C4.15128507,16.6282863 4.15407078,16.6282863 4.15685643,16.6283006 Z" id="path-9"></path>
        <filter x="-52.7%" y="-40.3%" width="205.5%" height="205.5%" filterUnits="objectBoundingBox" id="filter-10">
            <feMorphology radius="1" operator="dilate" in="SourceAlpha" result="shadowSpreadOuter1"></feMorphology>
            <feOffset dx="0" dy="2" in="shadowSpreadOuter1" result="shadowOffsetOuter1"></feOffset>
            <feGaussianBlur stdDeviation="1.5" in="shadowOffsetOuter1" result="shadowBlurOuter1"></feGaussianBlur>
            <feColorMatrix values="0 0 0 0 0.0705882353   0 0 0 0 0.196078431   0 0 0 0 0.552941176  0 0 0 0.2 0" type="matrix" in="shadowBlurOuter1"></feColorMatrix>
        </filter>
        <path d="M17.5265793,4.24146937 L31.9495556,4.31587335 C32.3936402,4.31816425 32.7530754,4.67759948 32.7553663,5.12168407 L32.8297703,19.5446604 C32.832078,19.9920051 32.4713043,20.3565204 32.0239596,20.3588281 C32.0211739,20.3588425 32.0183882,20.3588425 32.0156026,20.3588281 L17.5926263,20.2844241 C17.1485417,20.2821332 16.7891064,19.922698 16.7868155,19.4786134 L16.7124116,5.05563709 C16.7101038,4.60829239 17.0708776,4.24377709 17.5182223,4.24146937 C17.5210079,4.24145499 17.5237936,4.24145499 17.5265793,4.24146937 Z" id="path-11"></path>
        <filter x="-52.7%" y="-40.3%" width="205.5%" height="205.5%" filterUnits="objectBoundingBox" id="filter-12">
            <feMorphology radius="1" operator="dilate" in="SourceAlpha" result="shadowSpreadOuter1"></feMorphology>
            <feOffset dx="0" dy="2" in="shadowSpreadOuter1" result="shadowOffsetOuter1"></feOffset>
            <feGaussianBlur stdDeviation="1.5" in="shadowOffsetOuter1" result="shadowBlurOuter1"></feGaussianBlur>
            <feColorMatrix values="0 0 0 0 0.0705882353   0 0 0 0 0.196078431   0 0 0 0 0.552941176  0 0 0 0.2 0" type="matrix" in="shadowBlurOuter1"></feColorMatrix>
        </filter>
        <path d="M30.5715529,16.610745 L45.0047224,16.6750983 C45.4492504,16.6770803 45.8091208,17.0369507 45.8111028,17.4814787 L45.8753559,31.8921887 C45.8773505,32.3395349 45.5163217,32.7037975 45.0689755,32.7057921 C45.0665678,32.7058029 45.0641601,32.7058029 45.0617524,32.7057921 L30.6285829,32.6414389 C30.1840549,32.6394569 29.8241845,32.2795865 29.8222025,31.8350585 L29.7579494,17.4243485 C29.7559548,16.9770023 30.1169836,16.6127396 30.5643298,16.610745 C30.5667375,16.6107343 30.5691452,16.6107343 30.5715529,16.610745 Z" id="path-13"></path>
        <filter x="-52.7%" y="-40.4%" width="205.5%" height="205.6%" filterUnits="objectBoundingBox" id="filter-14">
            <feMorphology radius="1" operator="dilate" in="SourceAlpha" result="shadowSpreadOuter1"></feMorphology>
            <feOffset dx="0" dy="2" in="shadowSpreadOuter1" result="shadowOffsetOuter1"></feOffset>
            <feGaussianBlur stdDeviation="1.5" in="shadowOffsetOuter1" result="shadowBlurOuter1"></feGaussianBlur>
            <feColorMatrix values="0 0 0 0 0.0705882353   0 0 0 0 0.196078431   0 0 0 0 0.552941176  0 0 0 0.2 0" type="matrix" in="shadowBlurOuter1"></feColorMatrix>
        </filter>
        <path d="M43.5314288,4.24529814 L57.9645983,4.30965137 C58.4091263,4.31163339 58.7689967,4.67150375 58.7709787,5.1160318 L58.8352318,19.5267418 C58.8372264,19.974088 58.4761976,20.3383506 58.0288514,20.3403452 C58.0264437,20.340356 58.024036,20.340356 58.0216284,20.3403452 L43.5884588,20.275992 C43.1439308,20.27401 42.7840604,19.9141396 42.7820784,19.4696116 L42.7178253,5.05890161 C42.7158307,4.61155541 43.0768595,4.24729273 43.5242057,4.24529814 C43.5266134,4.24528741 43.5290211,4.24528741 43.5314288,4.24529814 Z" id="path-15"></path>
        <filter x="-52.7%" y="-40.4%" width="205.5%" height="205.6%" filterUnits="objectBoundingBox" id="filter-16">
            <feMorphology radius="1" operator="dilate" in="SourceAlpha" result="shadowSpreadOuter1"></feMorphology>
            <feOffset dx="0" dy="2" in="shadowSpreadOuter1" result="shadowOffsetOuter1"></feOffset>
            <feGaussianBlur stdDeviation="1.5" in="shadowOffsetOuter1" result="shadowBlurOuter1"></feGaussianBlur>
            <feColorMatrix values="0 0 0 0 0.0705882353   0 0 0 0 0.196078431   0 0 0 0 0.552941176  0 0 0 0.2 0" type="matrix" in="shadowBlurOuter1"></feColorMatrix>
        </filter>
        <path d="M4.15685643,16.6283006 L18.5798327,16.7027046 C19.0239173,16.7049955 19.3833525,17.0644308 19.3856434,17.5085153 L19.4600474,31.9314916 C19.4623552,32.3788363 19.1015814,32.7433516 18.6542367,32.7456594 C18.6514511,32.7456737 18.6486654,32.7456737 18.6458797,32.7456594 L4.22290341,32.6712554 C3.77881882,32.6689645 3.41938359,32.3095293 3.41709269,31.8654447 L3.3426887,17.4424684 C3.34038098,16.9951237 3.70115473,16.6306084 4.14849942,16.6283006 C4.15128507,16.6282863 4.15407078,16.6282863 4.15685643,16.6283006 Z" id="path-17"></path>
        <filter x="-52.7%" y="-40.3%" width="205.5%" height="205.5%" filterUnits="objectBoundingBox" id="filter-18">
            <feMorphology radius="1" operator="dilate" in="SourceAlpha" result="shadowSpreadOuter1"></feMorphology>
            <feOffset dx="0" dy="2" in="shadowSpreadOuter1" result="shadowOffsetOuter1"></feOffset>
            <feGaussianBlur stdDeviation="1.5" in="shadowOffsetOuter1" result="shadowBlurOuter1"></feGaussianBlur>
            <feColorMatrix values="0 0 0 0 0.0705882353   0 0 0 0 0.196078431   0 0 0 0 0.552941176  0 0 0 0.2 0" type="matrix" in="shadowBlurOuter1"></feColorMatrix>
        </filter>
        <path d="M17.5265793,4.24146937 L31.9495556,4.31587335 C32.3936402,4.31816425 32.7530754,4.67759948 32.7553663,5.12168407 L32.8297703,19.5446604 C32.832078,19.9920051 32.4713043,20.3565204 32.0239596,20.3588281 C32.0211739,20.3588425 32.0183882,20.3588425 32.0156026,20.3588281 L17.5926263,20.2844241 C17.1485417,20.2821332 16.7891064,19.922698 16.7868155,19.4786134 L16.7124116,5.05563709 C16.7101038,4.60829239 17.0708776,4.24377709 17.5182223,4.24146937 C17.5210079,4.24145499 17.5237936,4.24145499 17.5265793,4.24146937 Z" id="path-19"></path>
        <filter x="-52.7%" y="-40.3%" width="205.5%" height="205.5%" filterUnits="objectBoundingBox" id="filter-20">
            <feMorphology radius="1" operator="dilate" in="SourceAlpha" result="shadowSpreadOuter1"></feMorphology>
            <feOffset dx="0" dy="2" in="shadowSpreadOuter1" result="shadowOffsetOuter1"></feOffset>
            <feGaussianBlur stdDeviation="1.5" in="shadowOffsetOuter1" result="shadowBlurOuter1"></feGaussianBlur>
            <feColorMatrix values="0 0 0 0 0.0705882353   0 0 0 0 0.196078431   0 0 0 0 0.552941176  0 0 0 0.2 0" type="matrix" in="shadowBlurOuter1"></feColorMatrix>
        </filter>
        <path d="M30.5715529,16.610745 L45.0047224,16.6750983 C45.4492504,16.6770803 45.8091208,17.0369507 45.8111028,17.4814787 L45.8753559,31.8921887 C45.8773505,32.3395349 45.5163217,32.7037975 45.0689755,32.7057921 C45.0665678,32.7058029 45.0641601,32.7058029 45.0617524,32.7057921 L30.6285829,32.6414389 C30.1840549,32.6394569 29.8241845,32.2795865 29.8222025,31.8350585 L29.7579494,17.4243485 C29.7559548,16.9770023 30.1169836,16.6127396 30.5643298,16.610745 C30.5667375,16.6107343 30.5691452,16.6107343 30.5715529,16.610745 Z" id="path-21"></path>
        <filter x="-52.7%" y="-40.4%" width="205.5%" height="205.6%" filterUnits="objectBoundingBox" id="filter-22">
            <feMorphology radius="1" operator="dilate" in="SourceAlpha" result="shadowSpreadOuter1"></feMorphology>
            <feOffset dx="0" dy="2" in="shadowSpreadOuter1" result="shadowOffsetOuter1"></feOffset>
            <feGaussianBlur stdDeviation="1.5" in="shadowOffsetOuter1" result="shadowBlurOuter1"></feGaussianBlur>
            <feColorMatrix values="0 0 0 0 0.0705882353   0 0 0 0 0.196078431   0 0 0 0 0.552941176  0 0 0 0.2 0" type="matrix" in="shadowBlurOuter1"></feColorMatrix>
        </filter>
        <path d="M43.5314288,4.24529814 L57.9645983,4.30965137 C58.4091263,4.31163339 58.7689967,4.67150375 58.7709787,5.1160318 L58.8352318,19.5267418 C58.8372264,19.974088 58.4761976,20.3383506 58.0288514,20.3403452 C58.0264437,20.340356 58.024036,20.340356 58.0216284,20.3403452 L43.5884588,20.275992 C43.1439308,20.27401 42.7840604,19.9141396 42.7820784,19.4696116 L42.7178253,5.05890161 C42.7158307,4.61155541 43.0768595,4.24729273 43.5242057,4.24529814 C43.5266134,4.24528741 43.5290211,4.24528741 43.5314288,4.24529814 Z" id="path-23"></path>
        <filter x="-52.7%" y="-40.4%" width="205.5%" height="205.6%" filterUnits="objectBoundingBox" id="filter-24">
            <feMorphology radius="1" operator="dilate" in="SourceAlpha" result="shadowSpreadOuter1"></feMorphology>
            <feOffset dx="0" dy="2" in="shadowSpreadOuter1" result="shadowOffsetOuter1"></feOffset>
            <feGaussianBlur stdDeviation="1.5" in="shadowOffsetOuter1" result="shadowBlurOuter1"></feGaussianBlur>
            <feColorMatrix values="0 0 0 0 0.0705882353   0 0 0 0 0.196078431   0 0 0 0 0.552941176  0 0 0 0.2 0" type="matrix" in="shadowBlurOuter1"></feColorMatrix>
        </filter>
    </defs>
    <g id="Page-1" stroke="none" stroke-width="1" fill="none" fill-rule="evenodd">
        <g id="Group-6" transform="translate(4.000000, 3.000000)">
            <g id="Group-5">
                <g id="Group-4">
                    <g id="Group-2">
                        <g id="Group-3">
                            <g id="Group">
                                <g id="Rectangle-Copy-2" transform="translate(11.401368, 24.686980) rotate(-45.000000) translate(-11.401368, -24.686980) ">
                                    <use fill="black" fill-opacity="1" filter="url(#filter-2)" xlink:href="#path-1"></use>
                                    <use fill="#2653D6" fill-rule="evenodd" xlink:href="#path-1"></use>
                                </g>
                                <g id="Rectangle-Copy-4" transform="translate(24.771091, 12.300149) rotate(-45.000000) translate(-24.771091, -12.300149) ">
                                    <use fill="black" fill-opacity="1" filter="url(#filter-4)" xlink:href="#path-3"></use>
                                    <use fill="#2653D6" fill-rule="evenodd" xlink:href="#path-3"></use>
                                </g>
                                <g id="Rectangle-Copy-2" transform="translate(37.816653, 24.658269) rotate(-45.000000) translate(-37.816653, -24.658269) ">
                                    <use fill="black" fill-opacity="1" filter="url(#filter-6)" xlink:href="#path-5"></use>
                                    <use fill="#2653D6" fill-rule="evenodd" xlink:href="#path-5"></use>
                                </g>
                                <g id="Rectangle-Copy-4" transform="translate(50.776529, 12.292822) rotate(-45.000000) translate(-50.776529, -12.292822) ">
                                    <use fill="black" fill-opacity="1" filter="url(#filter-8)" xlink:href="#path-7"></use>
                                    <use fill="#2653D6" fill-rule="evenodd" xlink:href="#path-7"></use>
                                </g>
                            </g>
                            <text id="YBlockchain" font-family="Avenir-Light, Avenir" font-size="19.25" font-weight="300" fill="#2653D6">
                                <tspan x="76.5487126" y="25">YBlockchain</tspan>
                            </text>
                        </g>
                    </g>
                </g>
            </g>
            <g id="Group-5" transform="translate(0.000000, 60.000000)">
                <g id="Group-4">
                    <g id="Group-2">
                        <g id="Group-3">
                            <g id="Group">
                                <g id="Rectangle-Copy-2" transform="translate(11.401368, 24.686980) rotate(-45.000000) translate(-11.401368, -24.686980) ">
                                    <use fill="black" fill-opacity="1" filter="url(#filter-10)" xlink:href="#path-9"></use>
                                    <use fill="#2653D6" fill-rule="evenodd" xlink:href="#path-9"></use>
                                </g>
                                <g id="Rectangle-Copy-4" transform="translate(24.771091, 12.300149) rotate(-45.000000) translate(-24.771091, -12.300149) ">
                                    <use fill="black" fill-opacity="1" filter="url(#filter-12)" xlink:href="#path-11"></use>
                                    <use fill="#2653D6" fill-rule="evenodd" xlink:href="#path-11"></use>
                                </g>
                                <g id="Rectangle-Copy-2" transform="translate(37.816653, 24.658269) rotate(-45.000000) translate(-37.816653, -24.658269) ">
                                    <use fill="black" fill-opacity="1" filter="url(#filter-14)" xlink:href="#path-13"></use>
                                    <use fill="#2653D6" fill-rule="evenodd" xlink:href="#path-13"></use>
                                </g>
                                <g id="Rectangle-Copy-4" transform="translate(50.776529, 12.292822) rotate(-45.000000) translate(-50.776529, -12.292822) ">
                                    <use fill="black" fill-opacity="1" filter="url(#filter-16)" xlink:href="#path-15"></use>
                                    <use fill="#2653D6" fill-rule="evenodd" xlink:href="#path-15"></use>
                                </g>
                            </g>
                            <text id="YBlockchain" font-family="Avenir-Light, Avenir" font-size="19.25" font-weight="300" fill="#2653D6">
                                <tspan x="76.5487126" y="25">YBlockchain</tspan>
                            </text>
                        </g>
                    </g>
                </g>
            </g>
            <g id="Group-5" transform="translate(0.000000, 120.000000)">
                <g id="Group-4">
                    <g id="Group-2">
                        <g id="Group-3">
                            <g id="Group">
                                <g id="Rectangle-Copy-2" transform="translate(11.401368, 24.686980) rotate(-45.000000) translate(-11.401368, -24.686980) ">
                                    <use fill="black" fill-opacity="1" filter="url(#filter-18)" xlink:href="#path-17"></use>
                                    <use fill="#2653D6" fill-rule="evenodd" xlink:href="#path-17"></use>
                                </g>
                                <g id="Rectangle-Copy-4" transform="translate(24.771091, 12.300149) rotate(-45.000000) translate(-24.771091, -12.300149) ">
                                    <use fill="black" fill-opacity="1" filter="url(#filter-20)" xlink:href="#path-19"></use>
                                    <use fill="#2653D6" fill-rule="evenodd" xlink:href="#path-19"></use>
                                </g>
                                <g id="Rectangle-Copy-2" transform="translate(37.816653, 24.658269) rotate(-45.000000) translate(-37.816653, -24.658269) ">
                                    <use fill="black" fill-opacity="1" filter="url(#filter-22)" xlink:href="#path-21"></use>
                                    <use fill="#2653D6" fill-rule="evenodd" xlink:href="#path-21"></use>
                                </g>
                                <g id="Rectangle-Copy-4" transform="translate(50.776529, 12.292822) rotate(-45.000000) translate(-50.776529, -12.292822) ">
                                    <use fill="black" fill-opacity="1" filter="url(#filter-24)" xlink:href="#path-23"></use>
                                    <use fill="#2653D6" fill-rule="evenodd" xlink:href="#path-23"></use>
                                </g>
                            </g>
                            <text id="YBlockchain" font-family="Avenir-Light, Avenir" font-size="19.25" font-weight="300" fill="#2653D6">
                                <tspan x="76.5487126" y="25">YBlockchain</tspan>
                            </text>
                        </g>
                    </g>
                </g>
            </g>
        </g>
    </g>
</svg>